<?xml version="1.0" encoding="utf-8"?>
<!-- Generator: Adobe Illustrator 26.2.1, SVG Export Plug-In . SVG Version: 6.00 Build 0)  -->
<svg version="1.1" id="图层_1" xmlns="http://www.w3.org/2000/svg" xmlns:xlink="http://www.w3.org/1999/xlink" x="0px" y="0px"
	 viewBox="0 0 164.5 164.5" style="enable-background:new 0 0 164.5 164.5;" xml:space="preserve">
<style type="text/css">
	.st0{fill:none;}
	.st1{fill:#F7F8F8;}
	.st2{fill:#F5B91B;}
	.st3{fill:#479FC5;}
	.st4{fill:#5AB75A;}
	.st5{fill:#090505;}
	.st6{fill:#FBFBFD;}
	.st7{fill:#28A7B2;}
	.st8{fill:#0E0B09;}
	.st9{fill:#100D0A;}
	.st10{fill:#ECE936;}
	.st11{fill:none;stroke:#F8B62D;stroke-width:0.25;stroke-miterlimit:10;}
</style>
<g>
	<rect class="st0" width="164.5" height="164.5"/>
	<g>
		<path class="st1" d="M64.9,73.7c-9.7-4.5-21.4-13.2-39-4.1C8,78.9,9.5,102.1,10.8,112.4c2.9,22.5,25.5,17,70,9.9
			c45.8-7.3,35.8,2.6,55.8,5.8c23.8,3.9,20.9-37.1,7.8-49.8c-15.2-14.8-32.8-9.3-51.6-4.1C81.5,77.4,75.4,78.6,64.9,73.7z"/>
		<path class="st2" d="M116.5,69.4c-0.5,0.4-0.8,1.1-0.9,1.8c-0.1,0.7-0.1,1.3-0.3,2c-0.2,0.9-0.9,1.7-1.8,1.8
			c-5.3,1.2-10.6,2.4-15.9,3.5l-5.8,1.3c-0.7,0.2-1.1-0.2-1.4-0.9c-0.2-0.4-0.1-0.9,0.3-1.2c0.1,0,0.1-0.1,0.2-0.1
			c7.8-3.7,15.6-7.4,23.4-11.1c0.4-0.1,0.7-0.5,0.7-0.9c0.2-1.4,1.1-2.7,2.4-3.2c0.4-0.2,0.5-0.4,0.2-0.7c-0.4-0.5-0.8-1-1.3-1.4
			c-0.4-0.4-1-0.7-1.4-1.1c-0.6-0.5-0.9-1.4-0.6-2.2c2.2-7.1,4.5-14.3,6.7-21.4c0.2-0.6,0.8-0.9,1.4-0.7c0,0,0,0,0,0
			c0.6,0.1,1,0.3,0.9,1.1c-0.2,2.4-0.4,4.9-0.6,7.3s-0.4,5.1-0.6,7.6l-0.6,7.7c-0.1,1.2-0.2,2.4-0.3,3.6c0,0.2,0.1,0.4,0.3,0.6
			c1.3,1,2,2.6,1.7,4.3c0.7,0.3,1.6,0.2,2.2-0.2c0.7-0.3,1.4-0.6,2.1-0.8c0.7-0.2,1.5,0.1,1.9,0.7c3.9,4.3,7.8,8.5,11.7,12.7
			c1.1,1.2,2.2,2.4,3.4,3.7c0.5,0.5,0.4,1-0.1,1.7s-0.8,0.6-1.4,0.2c-7.1-4.9-14.1-9.7-21.2-14.6c-0.4-0.3-0.9-0.4-1.3-0.2
			C119.3,70.8,117.7,70.5,116.5,69.4z M121.4,71.3c-0.7,0.1-1.3,0.2-2,0.3c-0.7,0-1.4-0.1-2.1-0.3c-0.7,14.2-1.4,28.4-2.2,42.6h8.4
			L121.4,71.3z"/>
		<path class="st3" d="M24.2,87.3h5.5l-0.7,3H23L24.2,87.3z M29.3,90.3h5.9l0.2-3h-5.5L29.3,90.3z M35.5,90.3h5.9l-0.2-3h-5.5
			L35.5,90.3z M41.7,90.3h5.9l-0.7-3h-5.5L41.7,90.3z M48,90.3h5.9l-1.1-3h-5.5L48,90.3z M21.6,94.1h6.5l0.8-3.6h-5.9L21.6,94.1z
			 M28.4,94.1h6.5l0.3-3.6h-6L28.4,94.1z M35.2,94.1h6.5l-0.3-3.6h-5.9L35.2,94.1z M42.1,94.1h6.5l-0.8-3.6h-5.9L42.1,94.1z
			 M48.9,94.1h6.5L54,90.5h-6L48.9,94.1z M19.9,98.8H27l1-4.3h-6.5L19.9,98.8z M27.4,98.8h7.1l0.3-4.3h-6.5L27.4,98.8z M34.9,98.8
			H42l-0.3-4.3h-6.5L34.9,98.8z M42.4,98.8h7.1l-1-4.3h-6.5L42.4,98.8z M50,98.8h7.1l-1.6-4.3h-6.5L50,98.8z M17.7,104.5h7.9
			l1.2-5.3h-7.2L17.7,104.5z M26.1,104.5h8l0.4-5.3h-7.2L26.1,104.5z M34.5,104.5h7.9l-0.4-5.3h-7.2L34.5,104.5z M42.9,104.5h8
			l-1.2-5.3h-7.2L42.9,104.5z M51.3,104.5h7.9l-2-5.3H50L51.3,104.5z"/>
		<path class="st4" d="M141.9,128.5c0.8-7.2-4-13.9-11.1-15.5l-1.3,5.9l0.4-6.1c-2.6-0.4-5.2-0.1-7.6,0.9c-1.1-5.9-4.6-11-9.7-14.1
			l-7.3,11.3l6.2-12c-9.8-5.1-21.9-1.6-27.6,7.9c-0.5,0.9-1,1.8-1.4,2.7c-3.9-2.9-9.1-3.6-13.7-1.9l5.2,13.2l-6-12.9
			c-0.8,0.4-1.6,0.8-2.3,1.3c-4.1-8.1-13-12.5-21.9-10.8l2.4,13l-4.3-12.5c-10.8,3.1-17.1,14.4-14,25.3c0.4,1.5,1,3,1.8,4.3
			L141.9,128.5z"/>
		<path class="st5" d="M98.2,118c-0.2-1-0.7-1.9-1.4-2.7c-0.2-0.5-1.8-1.8-1.8-1.8l0,0c-0.1-0.1-0.2-0.2-0.3-0.2
			c-1.6-1.4-2.7-3.2-3.3-5.2c-0.3-0.9-0.5-1.8-0.8-2.7c-0.5-1.6-1.1-3.2-1.9-4.6c-0.2-0.4-0.7-0.5-1.1-0.3c-0.1,0.1-0.2,0.1-0.2,0.2
			c-0.4,0.6-0.8,1.1-1.2,1.7c-0.8,1.1-2,1.8-3.3,1.9c-0.3,0-0.5,0-0.5-0.4c-0.1-0.9-0.2-1.8-0.3-2.8c-0.1-0.2,0-0.4,0.1-0.6
			c0.7-0.9,0.8-1.3,0.1-2l-1-0.3c-0.7,0.1-1.2,0.7-1.2,1.4c0,0.4,0.3,0.8,0.6,1c0.2,0.1,0.4,0.3,0.5,0.6c0.2,0.8,0.2,1.6,0.3,2.5
			c0,0.4-0.2,0.5-0.5,0.5c-0.9-0.1-1.8-0.4-2.6-0.9c-0.5-0.4-1-0.8-1.5-1.3c-1-0.9-1.2-0.9-1.7,0.3c-0.1,0.2-0.2,0.5-0.3,0.8
			c-0.6,1.8-1,3.6-1.2,5.5c-0.2,2.3-0.2,4.5,0,6.8c0,0.2,0.1,0.4,0.1,0.6c0.2,2,0.7,4,1.3,5.9c0.8,2.7,2.7,5,5.2,6.2
			c4.2,2.2,9.3,2.2,13.5-0.2C98,125.6,99.2,122.3,98.2,118z"/>
		<path class="st6" d="M86.5,106.2c1.7,0,3.1,1.4,3.1,3.1c0,1.7-1.4,3.1-3.1,3.1c-1.7,0-3.1-1.4-3.1-3.1c0,0,0,0,0-0.1
			c0-1.7,1.3-3,2.9-3.1C86.4,106.2,86.5,106.2,86.5,106.2z"/>
		<path class="st6" d="M75.4,111.2c0-1.7,1.4-3.1,3.1-3.1c0,0,0,0,0,0c1.8,0,3.2,1.5,3.1,3.2c0,0,0,0,0,0.1c-0.1,1.7-1.5,3-3.2,3
			c-1.7,0.1-3-1.2-3.1-2.9C75.4,111.4,75.4,111.3,75.4,111.2z"/>
		<path class="st7" d="M81.9,99.5c0,0.3-0.3,0.6-0.6,0.6c0,0,0,0,0,0c-0.4,0-0.6-0.3-0.6-0.6c0-0.3,0.2-0.6,0.5-0.6c0,0,0.1,0,0.1,0
			C81.6,98.9,81.9,99.1,81.9,99.5C81.9,99.5,81.9,99.5,81.9,99.5z"/>
		<path class="st8" d="M88.2,108.6c0,0.5-0.2,0.7-0.6,0.7s-0.7-0.2-0.6-0.6c0-0.3,0.2-0.6,0.6-0.6c0,0,0.1,0,0.1,0
			C87.8,108,88.1,108.3,88.2,108.6C88.2,108.6,88.2,108.6,88.2,108.6z"/>
		<path class="st9" d="M78.6,110.6c0-0.4,0.2-0.6,0.6-0.6s0.6,0.2,0.6,0.6c0.1,0.3-0.1,0.6-0.5,0.7c0,0-0.1,0-0.1,0
			C78.7,111.3,78.5,111.1,78.6,110.6z"/>
		<path class="st10" d="M98.2,118c-0.2-1-0.7-1.9-1.4-2.7c-0.2-0.5-1.8-1.8-1.8-1.8l0,0c-0.1-0.1-0.2-0.2-0.3-0.2
			c-0.7-0.6-1.3-1.3-1.8-2l0,0c-2.2,1.5-4.6,2.7-7,3.8c-0.4,0.2,0,2.4-1.6,2.9s-2.5-1.5-3.7-1.2c-2.2,0.4-4.5,0.6-6.8,0.6
			c0.2,1.5,0.6,3,1.1,4.5c0.8,2.7,2.7,5,5.2,6.2c4.2,2.2,9.3,2.2,13.5-0.2C98,125.6,99.2,122.3,98.2,118z"/>
		<path class="st1" d="M96.4,114.7l-0.3-0.2c0,0-0.1-0.1-0.1-0.1C96.1,114.4,96.2,114.5,96.4,114.7z"/>
		<path class="st11" d="M84.4,117.9c1,3,3.3,8.4,7.8,10.6"/>
	</g>
</g>
</svg>
