<?xml version="1.0" encoding="utf-8"?>
<!-- Generator: Adobe Illustrator 26.2.1, SVG Export Plug-In . SVG Version: 6.00 Build 0)  -->
<svg version="1.1" id="图层_1" xmlns="http://www.w3.org/2000/svg" xmlns:xlink="http://www.w3.org/1999/xlink" x="0px" y="0px"
	 viewBox="0 0 164.5 164.5" style="enable-background:new 0 0 164.5 164.5;" xml:space="preserve">
<style type="text/css">
	.st0{fill:none;}
	.st1{fill:#EFEFEF;}
	
		.st2{fill:none;stroke:#A40B5D;stroke-width:0.8154;stroke-linecap:round;stroke-miterlimit:10.0285;stroke-dasharray:3.0578,2.0385;}
	.st3{fill:none;stroke:#A40B5D;stroke-width:0.8131;stroke-linecap:round;stroke-miterlimit:10;stroke-dasharray:3.0491,2.0327;}
	.st4{fill:#56BFC4;}
	.st5{fill:#F5B91B;}
	.st6{fill:#5AB75A;}
	.st7{fill:#AF66A6;}
	.st8{fill:#090505;}
	.st9{fill:#FBFBFD;}
	.st10{fill:#28A7B2;}
	.st11{fill:#0E0B09;}
	.st12{fill:#100D0A;}
	.st13{fill:#FFFFFF;}
	.st14{fill:#479FC5;}
	.st15{fill:none;stroke:#FFFFFF;stroke-width:0.7834;stroke-linejoin:round;}
	.st16{fill:none;stroke:#FFFFFF;stroke-width:1.2002;stroke-linecap:round;stroke-miterlimit:10;}
</style>
<g>
	<rect class="st0" width="164.5" height="164.5"/>
	<path class="st1" d="M91.3,118.5c-3.2,2.5-6.1,7.1-3.7,11.3c6.1,10.6,24.3,5.9,33.1-2.8c11.9-11.8,7.7-25.2,2.7-29.2
		s-11.9-0.6-13.1,3.1c-2.1,6.6,1.8,7.2,0.9,11.3C109.8,117.9,99.2,112.5,91.3,118.5z"/>
	<path class="st1" d="M75.3,29.2c-13.9-2.8-45,2-47.2,38.1C26.6,91.1,58.7,91.9,59,75.6c0.2-12.7,8.2-18.5,16.3-18.4
		s13.4-0.8,16-7.1C93.5,45,91.4,32.5,75.3,29.2z"/>
	<circle class="st2" cx="82.2" cy="79.5" r="33.4"/>
	<circle class="st3" cx="82" cy="79.8" r="50.1"/>
	<circle class="st4" cx="82" cy="79.8" r="21.9"/>
	<circle class="st5" cx="118.9" cy="52.4" r="14.5"/>
	<circle class="st6" cx="42.2" cy="52.2" r="17.1"/>
	<circle class="st7" cx="53" cy="111.6" r="16.3"/>
	<path class="st8" d="M95.9,83.6c-0.2-1-0.7-2-1.4-2.7c-0.2-0.5-1.8-1.8-1.8-1.8l0,0c-0.1-0.1-0.1-0.2-0.2-0.2
		c-1.6-1.4-2.8-3.3-3.4-5.4c-0.2-0.9-0.5-1.7-0.8-2.5c-0.6-2-1.4-3.9-2.6-5.7c-0.7,0.9-1.3,1.8-1.9,2.7c-0.8,1.1-2,1.8-3.4,1.9
		c-0.3,0.1-0.5,0-0.5-0.4c-0.1-0.9-0.2-1.8-0.3-2.8c-0.1-0.2,0-0.4,0.1-0.6c0.8-1,0.8-1.4-0.2-2.3h-0.9c-0.7,0.1-1.2,0.8-1,1.5
		c0.1,0.4,0.3,0.7,0.6,0.9c0.2,0.1,0.4,0.3,0.5,0.6c0.2,0.8,0.2,1.7,0.3,2.5c0,0.4-0.1,0.6-0.5,0.5c-0.9-0.1-1.8-0.4-2.6-1
		c-0.5-0.4-1-0.8-1.5-1.3c-1-1-1.2-0.9-1.7,0.3c-0.1,0.3-0.2,0.5-0.3,0.8c-0.6,1.8-1,3.6-1.2,5.5c-0.2,2.3-0.2,4.5,0,6.8
		c0,0.2,0.1,0.4,0.1,0.6c0.2,2,0.7,4,1.3,5.9c0.8,2.7,2.7,5,5.3,6.2c4.3,2.2,9.3,2.2,13.5-0.2C95.7,91.2,96.8,87.9,95.9,83.6z"/>
	<path class="st9" d="M84.2,71.8c1.7,0,3.1,1.3,3.2,3l0,0c0.1,1.7-1.3,3.2-3,3.2c-0.1,0-0.1,0-0.2,0c-1.7,0-3.1-1.3-3.1-3
		c0-0.1,0-0.1,0-0.2c0-1.7,1.3-3,2.9-3.1C84.1,71.8,84.1,71.8,84.2,71.8z"/>
	<path class="st9" d="M73.1,76.8c0-1.7,1.4-3.1,3.1-3.1l0,0c1.8,0,3.2,1.5,3.1,3.2V77c-0.1,1.7-1.5,3-3.2,3
		c-1.7,0.1-3.1-1.2-3.1-2.9C73,77,73,76.9,73.1,76.8z"/>
	<path class="st10" d="M79.6,65.1c0,0.3-0.3,0.6-0.6,0.6l0,0c-0.4,0-0.6-0.2-0.6-0.6c0-0.3,0.2-0.6,0.5-0.6H79
		C79.3,64.4,79.6,64.7,79.6,65.1C79.6,65,79.6,65.1,79.6,65.1z"/>
	<path class="st11" d="M85.9,74.2c0,0.5-0.2,0.7-0.6,0.7s-0.7-0.2-0.7-0.6c0-0.3,0.3-0.6,0.6-0.6c0,0,0,0,0.1,0
		C85.6,73.6,85.8,73.8,85.9,74.2L85.9,74.2z"/>
	<path class="st12" d="M76.2,76.2c0-0.4,0.2-0.6,0.6-0.6s0.6,0.2,0.6,0.6c0.1,0.3-0.1,0.6-0.5,0.7h-0.1
		C76.4,76.9,76.2,76.6,76.2,76.2z"/>
	<path class="st13" d="M50.7,115.7c0,0.4,0,0.7,0,1.1c0.1,1.1,0.6,2.1,1.5,2.7c0.2,0.2,0.4,0.4,0.4,0.7c0,0.4,0,0.8,0,1.2
		c-0.1,0.5,0.3,0.9,0.8,1l0,0c0.1,0,0.1,0,0.2,0.1c0.6,0.6,1.6,0.5,2.2-0.1c0,0,0.1-0.1,0.2-0.1c0.5,0,0.8-0.5,0.8-0.9v-1
		c0-0.3,0.1-0.6,0.4-0.8c0.4-0.4,0.8-0.8,1.1-1.3s0.4-1.1,0.4-1.6c0-0.2,0-0.5,0-0.7l0,0c0-0.1,0-0.1,0-0.2c0,0,0-0.1,0-0.2
		l-0.1-0.3c-0.2-0.5-0.4-1.1-0.8-1.5c-1.5-1.7-4.1-1.8-5.7-0.3c-0.5,0.5-0.9,1.1-1.2,1.8c0,0.1-0.1,0.2-0.1,0.3 M52.9,119.8
		c-0.1-0.3-0.3-0.6-0.6-0.8c-0.5-0.4-0.9-1-1.1-1.7c-0.1-0.4-0.2-0.9-0.1-1.3c0-0.1,0.1-0.4,0.1-0.5c0.2-0.6,0.4-1.1,0.9-1.6
		c0.3-0.4,0.8-0.6,1.2-0.8c0.9-0.4,2-0.3,2.9,0.2c0.8,0.4,1.5,1.2,1.7,2.1c0.1,0.2,0.1,0.3,0.1,0.5v0.1c0.1,0.9-0.2,1.9-0.8,2.6
		c-0.2,0.2-0.4,0.4-0.6,0.6c-0.2,0.2-0.3,0.4-0.4,0.7c0,0.1-0.1,0.1-0.2,0.1h-3C52.9,119.9,52.9,119.8,52.9,119.8z M55.3,121.9
		c-0.4,0.4-1,0.5-1.4,0.1l-0.1-0.1c-0.1-0.2-0.3-0.3-0.5-0.2c-0.2,0-0.4-0.1-0.4-0.4v-0.7c0-0.1,0-0.1,0.1-0.1h0.1
		c0.9,0,1.8,0,2.7,0c0.2,0,0.2,0,0.2,0.2v0.6c0,0.3-0.1,0.4-0.4,0.4C55.5,121.6,55.4,121.7,55.3,121.9z M48.4,116.3h0.9
		c0.2,0,0.3,0.1,0.3,0.3c0,0.2-0.1,0.3-0.3,0.3h-1c-0.2,0-0.3-0.1-0.3-0.3C48.1,116.4,48.2,116.3,48.4,116.3L48.4,116.3z
		 M50.4,113.5c-0.1,0.1-0.3,0-0.3-0.1c-0.2-0.3-0.3-0.6-0.5-0.9c-0.1-0.1,0-0.3,0.1-0.4l0,0c0.1-0.1,0.3,0,0.4,0.1
		c0.2,0.3,0.3,0.5,0.5,0.8v0.1C50.6,113.3,50.5,113.4,50.4,113.5L50.4,113.5z M48.7,114.6c-0.1-0.1-0.2-0.2-0.1-0.3l0,0
		c0-0.1,0.2-0.2,0.3-0.2l0,0l0.9,0.3c0,0,0.1,0,0.1,0.1c0.1,0.1,0.1,0.2,0,0.3c-0.1,0.1-0.2,0.2-0.3,0.1
		C49.3,114.9,48.9,114.8,48.7,114.6L48.7,114.6z M48.7,118.8c-0.1-0.1,0-0.3,0.1-0.4l0,0l0.9-0.5c0.2-0.1,0.3,0,0.4,0.2v0.1
		c0,0.1-0.1,0.2-0.2,0.2c-0.3,0.2-0.5,0.3-0.8,0.5C48.9,119,48.7,119,48.7,118.8C48.6,118.9,48.6,118.9,48.7,118.8L48.7,118.8z
		 M49.8,121.1c-0.1-0.1-0.1-0.3,0-0.4l0,0c0.2-0.2,0.5-0.4,0.8-0.7c0.1-0.1,0.3-0.1,0.4,0.1v0.1c0,0.1-0.1,0.2-0.1,0.2
		c-0.2,0.2-0.5,0.4-0.7,0.6C50.1,121.3,49.9,121.3,49.8,121.1C49.8,121.2,49.8,121.2,49.8,121.1L49.8,121.1z M60.7,116.8h-1
		c-0.1,0-0.3-0.1-0.3-0.3l0,0c0-0.1,0.1-0.3,0.2-0.3l0,0h0.9c0.2,0,0.3,0.1,0.3,0.3l0,0C61,116.7,60.9,116.8,60.7,116.8L60.7,116.8
		L60.7,116.8z M59.5,112.5c-0.2,0.3-0.3,0.6-0.5,0.9c-0.1,0.1-0.2,0.2-0.3,0.1s-0.2-0.2-0.2-0.3v-0.1l0.5-0.8
		c0.1-0.1,0.2-0.2,0.4-0.1C59.5,112.2,59.6,112.3,59.5,112.5L59.5,112.5L59.5,112.5z M60.6,114.3c0.1,0.1,0,0.3-0.1,0.3l0,0
		c-0.3,0.1-0.6,0.3-1,0.4c-0.1,0-0.3,0-0.3-0.1c-0.1-0.1,0-0.2,0.1-0.3l0.1-0.1l0.9-0.3C60.4,114.1,60.5,114.1,60.6,114.3
		L60.6,114.3z M60.2,118.9c-0.3-0.2-0.6-0.3-0.8-0.5c-0.1,0-0.1-0.2-0.2-0.2c0-0.2,0.1-0.3,0.3-0.3h0.1c0.3,0.2,0.6,0.3,0.9,0.5
		c0.1,0.1,0.2,0.2,0.1,0.3l0,0C60.5,119,60.3,119,60.2,118.9C60.1,119,60.1,119,60.2,118.9L60.2,118.9z M59.3,120.7
		c0.1,0.1,0.1,0.2,0,0.4l0,0c-0.1,0.1-0.3,0.1-0.4,0l0,0l-0.7-0.6c-0.1-0.1-0.1-0.2-0.1-0.2c0.1-0.2,0.3-0.3,0.5-0.2
		S59,120.5,59.3,120.7L59.3,120.7z M52.5,115.7c0,0.1-0.1,0.3-0.2,0.3c-0.3,0-0.4-0.2-0.3-0.4c0.1-0.4,0.3-0.7,0.5-1
		c0.4-0.5,0.9-0.8,1.5-1c0.1,0,0.1,0,0.2,0c0.1,0,0.2,0.1,0.2,0.2s-0.1,0.3-0.2,0.3c-0.2,0-0.3,0.1-0.5,0.2
		C53.2,114.6,52.7,115.1,52.5,115.7L52.5,115.7z M63.4,116.7c0.7-0.5,1.3-1.3,1.6-2.1c0.4-1,0.4-2.2,0-3.2c-0.3-0.8-0.7-1.4-1.4-1.9
		c-0.4-0.3-0.7-0.5-1.1-0.7c-0.2-0.1-0.3-0.2-0.3-0.4c0-0.2,0.2-0.3,0.4-0.3h0.1l0.6,0.3c-0.6-2.7-3-4.5-5.7-4.5
		c0.1,0.2,0.2,0.3,0.3,0.5c0.2,0.3,0.3,0.6,0.4,0.9c0.1,0.2,0,0.4-0.1,0.5c0,0,0,0-0.1,0c-0.2,0.1-0.4,0-0.5-0.2
		c-0.2-0.4-0.4-0.8-0.6-1.2c-1.5-2.3-4.7-3-7-1.5c-0.1,0.1-0.2,0.2-0.4,0.3c-0.3,0.3-0.6,0.6-0.9,0.9c-0.1,0.1-0.2,0.2-0.4,0.2
		s-0.3-0.2-0.3-0.4c0-0.1,0-0.2,0.1-0.2c0.2-0.2,0.4-0.4,0.5-0.7c-0.9-0.2-1.9-0.2-2.9,0.2c-1.2,0.4-2.2,1.3-2.8,2.4l1-0.1
		c0.1,0,0.1,0,0.2,0c0.2,0,0.3,0.2,0.3,0.3c0,0.2-0.2,0.3-0.4,0.3l0,0c-0.6,0-1.2,0.2-1.8,0.4c-0.7,0.3-1.2,0.9-1.6,1.5
		c-0.5,0.9-0.6,1.9-0.4,2.8c0.2,0.6,0.5,1.1,0.9,1.6c0.6,0.7,1.4,1.1,2.3,1.2c0.4,0,0.7,0,1.1,0l0.1-0.1c0.2-0.5,0.4-1,0.8-1.4
		c0.5-0.5,1.1-0.9,1.8-1c0.2-0.1,0.5-0.1,0.7-0.1c0.2-0.1,0.4,0,0.5,0.2s0,0.4-0.2,0.5c-0.1,0-0.1,0-0.2,0c-1,0-1.9,0.5-2.4,1.3
		s-0.6,1.8-0.2,2.7c0.4,0.9,1.2,1.5,2.2,1.6c0.1,0,0.2,0,0.3,0c0.2,0,0.4,0.1,0.4,0.3v0.1c0,0.2-0.2,0.3-0.3,0.2
		c-0.5,0-1-0.1-1.4-0.3c-0.8-0.4-1.5-1-1.8-1.8c-0.2-0.5-0.3-1.1-0.3-1.6H44c-0.8,0-1.6-0.3-2.2-0.8c-2-1.3-2.6-3.9-1.4-5.9
		c0.4-0.7,1-1.3,1.6-1.7c0.1,0,0.1-0.1,0.2-0.2c0.7-1.7,2.1-3,3.8-3.5c1.1-0.3,2.2-0.3,3.2,0c0.1,0,0.2,0,0.3,0
		c0.7-0.5,1.5-0.8,2.3-0.9c1.3-0.2,2.7,0,3.9,0.7c0.4,0.3,0.8,0.6,1.2,0.9c0.1,0.1,0.2,0.1,0.2,0.1c1.9-0.2,3.8,0.6,5.2,2
		c1,1,1.6,2.3,1.8,3.7c0,0.1,0,0.1,0.1,0.2c0.8,0.8,1.4,1.7,1.6,2.8c0.3,1.2,0.1,2.6-0.6,3.7c-0.5,1-1.4,1.8-2.5,2.2
		c-0.7,0.3-1.5,0.5-2.2,0.5c-0.2,0-0.4-0.1-0.4-0.3s0.1-0.4,0.3-0.4s0.4,0,0.6-0.1c1-0.2,1.7-0.9,1.9-1.9c0.3-1.3-0.5-2.5-1.8-2.8
		c-0.1,0-0.1,0-0.2,0c-0.1,0-0.2,0-0.4-0.1c-0.2,0-0.3-0.2-0.3-0.3l0,0c0-0.2,0.2-0.3,0.4-0.3c0.7,0,1.4,0.2,2,0.7s1,1.2,1.1,1.9
		c0.1,0.6,0,1.2-0.3,1.8L63.4,116.7z M51.6,107.2c0.4-0.2,0.8-0.2,1.2-0.2c0.3,0,0.6,0.1,0.9,0.2c0.2,0.1,0.2,0.2,0.2,0.4l0,0
		c-0.1,0.2-0.3,0.3-0.4,0.2l0,0c-0.3-0.1-0.5-0.1-0.8-0.2c-0.7,0-1.3,0.3-1.7,0.9c0,0.1-0.1,0.1-0.1,0.2c-0.1,0.1-0.3,0.2-0.4,0.1
		c-0.2-0.1-0.2-0.2-0.2-0.4l0,0c0.1-0.2,0.2-0.4,0.4-0.6s0.3-0.5,0.3-0.8c0-0.5-0.2-1-0.6-1.2l-0.1-0.1c-0.1-0.1-0.1-0.3,0-0.5l0,0
		c0.1-0.1,0.4-0.1,0.5,0c0.5,0.3,0.8,0.8,0.9,1.3C51.5,106.7,51.5,106.9,51.6,107.2L51.6,107.2z M60.8,110.2c0,0.1,0,0.2,0,0.2
		c0,0.2-0.2,0.3-0.3,0.3c-0.2,0-0.3-0.1-0.3-0.3c0-0.3-0.1-0.5-0.2-0.8c-0.3-0.7-0.9-1.2-1.7-1.2c-0.1,0-0.2,0-0.3-0.1
		s-0.2-0.2-0.1-0.4c0-0.1,0.2-0.2,0.3-0.2c0.7,0,1.4,0.3,1.9,0.9C60.5,109.1,60.7,109.6,60.8,110.2L60.8,110.2z"/>
	<circle class="st14" cx="126.2" cy="99.6" r="13.6"/>
	<path class="st15" d="M132.4,107.6H120c0-1.2-1-2.2-2.2-2.2l0,0V93c1.2,0,2.2-1,2.2-2.2l0,0h12.4c0,1.2,1,2.2,2.2,2.2
		c0,0,0,0,0.1,0v12.4C133.4,105.4,132.4,106.4,132.4,107.6z"/>
	<circle class="st13" cx="126.2" cy="99.2" r="4.5"/>
	<circle class="st14" cx="126.2" cy="99.2" r="2.8"/>
	<circle class="st13" cx="127.1" cy="97.9" r="0.4"/>
	<path class="st13" d="M112.7,62.2v-0.4c0-0.1,0-0.3,0-0.4l0,0l-0.4-0.2h-0.1l-0.5,0.6l-1.5-1.6l0.6-0.5l-0.2-0.5h-0.8v-2.1h0.8
		l0.2-0.5l-0.6-0.5l1.5-1.6l0.2,0.2L112,55l0.3,0.3c0.1-0.1,0.2-0.1,0.4-0.2c0.1,0,0.1,0,0.1-0.2c0-0.1,0-0.2,0-0.3v-0.3h2.1v0.4
		c0,0.1,0,0.3,0,0.4c0.2,0,0.3,0.1,0.4,0.2l0,0l0,0c0.1-0.1,0.2-0.2,0.2-0.3l0.2-0.3l1.5,1.5l-0.6,0.5v0.1c0,0.1,0.1,0.3,0.2,0.4
		h0.8v2.1h-0.8c-0.1,0.1-0.1,0.3-0.2,0.4v0.1l0.6,0.5l-1.5,1.5l-0.5-0.6h-0.1l-0.4,0.2l0,0c0,0.1,0,0.2,0,0.4v0.4L112.7,62.2z
		 M113.9,61.8v-0.6l1.8-0.7l0.3,0.4l0.3-0.3l-0.4-0.3l0.2-0.5c0.1-0.3,0.2-0.6,0.3-0.9c0-0.2,0.2-0.3,0.4-0.3h0.4v-0.4h-0.4
		c-0.2,0-0.3-0.1-0.4-0.2c-0.1-0.3-0.2-0.7-0.4-1l-0.2-0.4l0.4-0.4l-0.3-0.3l-0.5,0.5l-0.2-0.1c-0.3-0.3-0.7-0.4-1.1-0.5
		c-0.2,0-0.4-0.2-0.3-0.4l0,0c0-0.1,0-0.2,0-0.3h-0.4c0,0.1,0,0.2,0,0.3c0,0.2-0.1,0.4-0.3,0.5c-0.3,0.1-0.7,0.3-1,0.4
		c-0.1,0-0.1,0-0.2,0s-0.2-0.1-0.3-0.2l-0.2-0.2l-0.3,0.3l0.5,0.4l-0.1,0.2c-0.3,0.3-0.4,0.7-0.5,1.2c-0.1,0.2-0.2,0.3-0.4,0.3h-0.4
		v0.4h0.4c0.2,0,0.3,0.1,0.4,0.2l0.4,1l0.2,0.5l-0.4,0.4l0.3,0.3l0.4-0.5l0.2,0.1l0.2,0.1c0.1,0.1,0.2,0.1,0.4,0.2
		c0.2,0.1,0.4,0.1,0.6,0.2l0,0c0.2,0,0.4,0.2,0.4,0.5l0,0c0,0.1,0,0.2,0,0.3L113.9,61.8z M118.7,61.6h-0.5c-0.2,0-0.4-0.2-0.4-0.4
		s0.2-0.4,0.4-0.4h0.4c0.4,0,0.8,0,1.1,0c0.9-0.1,1.8-0.4,2.7-0.8c1.5-0.8,2.7-2.1,3.4-3.7c0.1-0.1,0.1-0.2,0.2-0.3
		c0.1,0,0.1,0,0.2,0s0.2,0,0.3,0.1c0.1,0.1,0.1,0.3,0.1,0.5l-0.1,0.2c-0.2,0.4-0.4,0.8-0.6,1.1c-1.3,2-3.4,3.3-5.7,3.7h-0.3
		l-0.8,0.1h-0.2L118.7,61.6z M113.7,60c-0.9,0-1.7-0.8-1.7-1.7s0.8-1.7,1.7-1.7c0.9,0,1.7,0.8,1.7,1.7c0,0.4-0.2,0.9-0.5,1.2
		C114.6,59.8,114.2,60,113.7,60L113.7,60z M113.7,57.2c-0.6,0-1.1,0.5-1.1,1.1l0,0c0,0.6,0.5,1.1,1.1,1.1c0,0,0,0,0.1,0
		c0.6,0,1.1-0.5,1.1-1.1C114.9,57.7,114.4,57.2,113.7,57.2L113.7,57.2L113.7,57.2z M120.7,56v-0.5c0-0.3,0-0.5,0-0.8l0,0l0,0
		c-0.3-0.1-0.6-0.2-0.9-0.3l-0.2-0.1l-0.9,0.9l-2.2-2.2l0.9-0.9l-0.1-0.2c-0.1-0.3-0.3-0.7-0.4-1h-1.3v-3.1h1.3l0.5-1.2l-0.9-0.9
		l2.2-2.2l0.3,0.3l0.6,0.6l0,0l0,0c0.4-0.2,0.7-0.3,1.1-0.5l0,0c0-0.3,0-0.5,0-0.8v-0.5h3.1v1.1c0,0.1,0,0.2,0,0.2h0.2h0.1l0.7,0.3
		l0.2,0.1l0.9-0.9l2.2,2.2l-0.9,0.9l0.5,1.2h1.3v3.1h-1.3c-0.1,0.3-0.2,0.6-0.4,1l-0.1,0.2l0.9,0.9l-2.2,2.2l-0.3-0.4l-0.6-0.6l0,0
		c-0.3,0.2-0.7,0.3-1.1,0.5l0,0l0,0c0,0.3,0,0.5,0,0.8V56H120.7z M122.9,55.1v-0.8c0-0.2,0.1-0.4,0.3-0.4l0,0
		c0.6-0.1,1.1-0.3,1.6-0.7c0.1,0,0.1-0.1,0.2-0.1s0.2,0.1,0.3,0.1c0.2,0.2,0.3,0.3,0.5,0.5l0,0l1-1l-0.8-0.8l0.1-0.1
		c0.4-0.5,0.6-1.1,0.7-1.7c0-0.2,0.2-0.3,0.4-0.3h0.8c0-0.2,0-0.3,0-0.5v-0.8h-0.8c-0.2,0-0.4-0.1-0.4-0.3c-0.1-0.3-0.2-0.7-0.3-1
		c-0.1-0.2-0.2-0.4-0.3-0.5l-0.2-0.3l-0.1-0.1l0.8-0.8l-0.9-0.9l-0.8,0.8l-0.1-0.1c-0.5-0.4-1.1-0.6-1.7-0.7c-0.2,0-0.4-0.2-0.3-0.4
		l0,0c0-0.2,0-0.5,0-0.7v-0.1h-1.3v0.8c0,0.2-0.1,0.4-0.3,0.4c-0.3,0.1-0.7,0.2-1,0.3l-0.6,0.3l-0.3,0.2l-0.1,0.1l-0.7-0.8l-1,0.9
		l0.8,0.8l-0.1,0.1c-0.4,0.5-0.6,1.1-0.7,1.7c0,0.2-0.2,0.4-0.4,0.4l0,0h-0.8V50h0.7c0.5,0,0.6,0.1,0.7,0.5c0.1,0.5,0.4,1,0.7,1.5
		l0.1,0.2l-0.8,0.8l1,1l0.8-0.8l0.1,0.1l0.3,0.2c0.2,0.1,0.4,0.2,0.6,0.3c0.3,0.1,0.5,0.2,0.8,0.3h0.1c0.2,0,0.3,0.2,0.3,0.4
		s0,0.5,0,0.8v0.1L122.9,55.1z M110.1,54.9c-0.2,0-0.4-0.2-0.4-0.4l0,0c0-0.2,0-0.5-0.1-0.7v-0.2c0-2,0.6-3.9,1.9-5.5
		c0.9-1.2,2.2-2.1,3.6-2.6c0.1,0,0.2,0,0.2,0c0.2,0,0.3,0.1,0.4,0.3s-0.1,0.5-0.3,0.6l0,0c-0.7,0.3-1.4,0.7-2.1,1.2
		c-1.3,1.1-2.2,2.5-2.6,4.1c-0.2,0.8-0.3,1.6-0.2,2.5v0.1c0,0.1,0,0.1,0,0.2C110.6,54.7,110.4,54.9,110.1,54.9
		C110.2,54.9,110.2,54.9,110.1,54.9L110.1,54.9z M122.3,53.5c-2.3-0.1-4.1-2.1-4-4.4c0.1-2.1,1.8-3.9,4-4h0.1c2.3,0,4.2,1.9,4.2,4.2
		c0,1.1-0.4,2.2-1.2,2.9C124.5,53,123.4,53.5,122.3,53.5L122.3,53.5z M122.3,46c-1.8,0-3.3,1.5-3.3,3.3s1.5,3.2,3.3,3.3l0,0
		c1.8,0,3.3-1.5,3.3-3.3C125.6,47.5,124.1,46,122.3,46L122.3,46L122.3,46z"/>
	<path class="st16" d="M38.3,57c-2.7-1.6-3.5-5-1.9-7.7c0.5-0.9,1.3-1.6,2.2-2.1"/>
	<path class="st16" d="M35.4,59.9c-4.2-2.5-5.6-8-3.1-12.2c0.8-1.4,2-2.5,3.5-3.3"/>
	<path class="st16" d="M46,57c2.7-1.6,3.5-5,1.9-7.7c-0.5-0.9-1.3-1.6-2.2-2.1"/>
	<path class="st16" d="M48.9,59.9c4.2-2.5,5.6-8,3.1-12.2c-0.8-1.4-2-2.5-3.5-3.3"/>
	<circle class="st13" cx="42.2" cy="52.2" r="2.2"/>
</g>
</svg>
