<?xml version="1.0" encoding="utf-8"?>
<!-- Generator: Adobe Illustrator 26.2.1, SVG Export Plug-In . SVG Version: 6.00 Build 0)  -->
<svg version="1.1" id="图层_1" xmlns="http://www.w3.org/2000/svg" xmlns:xlink="http://www.w3.org/1999/xlink" x="0px" y="0px"
	 viewBox="0 0 164.5 164.5" style="enable-background:new 0 0 164.5 164.5;" xml:space="preserve">
<style type="text/css">
	.st0{fill:none;}
	.st1{fill:#EFEFEF;}
	.st2{fill:#898989;}
	.st3{fill:#FFFFFF;stroke:#3E3A39;stroke-width:5.1029;stroke-miterlimit:10;}
	.st4{fill:#F5B91B;}
	.st5{fill:#AF66A6;}
	.st6{fill:#FFFFFF;}
	.st7{fill:#AF66A6;stroke:#601986;stroke-width:0.5368;stroke-linecap:round;stroke-miterlimit:10;stroke-dasharray:1.6103;}
	.st8{fill:none;stroke:#601986;stroke-width:0.5368;stroke-linecap:round;stroke-miterlimit:10;stroke-dasharray:1.5729,1.5729;}
	.st9{fill:#3E3A39;}
	.st10{fill:none;stroke:#3E3A39;stroke-width:0.5121;stroke-miterlimit:10;}
	.st11{fill:#5CA9CB;}
	.st12{fill:#479FC5;}
	.st13{fill:#5AB75A;}
	.st14{fill:#5AB75A;stroke:#3C8E39;stroke-width:0.1291;}
	.st15{fill:#F5A626;}
	.st16{fill:none;stroke:#601986;stroke-width:0.8051;stroke-miterlimit:10;}
	.st17{fill:#601986;}
	.st18{fill:#090505;}
	.st19{fill:#FBFBFD;}
	.st20{fill:#28A7B2;}
	.st21{fill:#0E0B09;}
	.st22{fill:#100D0A;}
	.st23{fill:none;stroke:#2EA7E0;stroke-width:0.8051;stroke-miterlimit:10;}
	.st24{fill:#22AC38;}
	.st25{fill:#56BFC4;}
	.st26{fill:none;stroke:#006934;stroke-width:0.5368;stroke-miterlimit:10;}
	.st27{fill:#898989;stroke:#3E3A39;stroke-width:0.5052;stroke-miterlimit:10;}
</style>
<g>
	<rect class="st0" width="164.5" height="164.5"/>
	<g>
		<circle class="st1" cx="125.7" cy="67.8" r="33.8"/>
		<circle class="st1" cx="27.8" cy="61.2" r="22.9"/>
		<ellipse class="st2" cx="84.4" cy="128.3" rx="58.1" ry="2.2"/>
		<path class="st3" d="M111.9,51.1H33.6c-0.9,0-1.7,0.8-1.7,1.7l0,0V113h104.1V52.8c0-0.9-0.8-1.7-1.7-1.7H111.9z"/>
		<path class="st4" d="M36.6,58.2c3.4-2.7,8.2-2.7,11.6,0H55c0.3,0,0.5,0.2,0.5,0.5v4.8c0,0.3-0.2,0.5-0.5,0.5c0,0,0,0,0,0H42.4
			c-0.2,0-0.4,0.1-0.5,0.2l-0.5,0.5c-0.1,0.2-0.3,0.2-0.5,0.2h-1.5c-0.2,0-0.4-0.1-0.5-0.2l-0.5-0.5c-0.1-0.1-0.3-0.2-0.5-0.2h-1
			c-0.3,0-0.5-0.2-0.5-0.5c0,0,0,0,0,0L36.6,58.2z"/>
		<path class="st4" d="M66.2,64.6c5.9-5.2,16.8-5.2,22.7,0h13.3c0.6,0,1,0.4,1,1v9.5c0,0.6-0.4,1-1,1H77.6c-0.4,0-0.8,0.2-1,0.5
			l-0.9,1c-0.2,0.3-0.6,0.5-1,0.5h-2.7c-0.4,0-0.8-0.2-1-0.5l-1-1c-0.2-0.3-0.6-0.5-1-0.5h-1.7c-0.5,0-1-0.5-0.9-1V64.6z"/>
		<path class="st5" d="M36.6,68.3c0-0.3,0.3-0.6,0.6-0.6h1.2c0.2,0,0.5,0.1,0.6,0.3l0.6,0.6c0.1,0.2,0.4,0.3,0.6,0.3H42
			c0.2,0,0.5-0.1,0.6-0.3l0.6-0.6c0.1-0.2,0.4-0.3,0.6-0.3h11.1c0.3,0,0.6,0.3,0.6,0.6v6c0,0.3-0.3,0.6-0.6,0.6H43.8
			c-0.2,0-0.5,0.1-0.6,0.3l-0.6,0.6c-0.1,0.2-0.4,0.3-0.6,0.3h-1.8c-0.2,0-0.5-0.1-0.6-0.3L39,75.2c-0.1-0.2-0.4-0.3-0.6-0.3h-1.2
			c-0.3,0-0.6-0.3-0.6-0.6L36.6,68.3z"/>
		<path class="st6" d="M49.5,68.9h2.4c1.3-0.1,2.5,0.9,2.6,2.2c0.1,1.3-0.9,2.5-2.2,2.6c-0.1,0-0.2,0-0.3,0h-2.4
			c-1.3-0.1-2.3-1.2-2.2-2.6C47.3,69.9,48.3,69,49.5,68.9z"/>
		<path class="st7" d="M66.3,80.4c0-0.6,0.4-1,1-1h1.9c0.4,0,0.7,0.2,0.9,0.5l1,1c0.2,0.3,0.6,0.5,1,0.5H75c0.4,0,0.8-0.2,1-0.5l1-1
			c0.2-0.3,0.6-0.5,1-0.5h17.2c0.6,0,1,0.4,1,1v9.5c0,0.6-0.4,1-1,1H77.7c-0.4,0-0.8,0.2-1,0.5l-1,1c-0.2,0.3-0.6,0.5-1,0.5H72
			c-0.4,0-0.8-0.2-1-0.5l-1-1c-0.2-0.3-0.6-0.5-0.9-0.5h-1.9c-0.6,0-1-0.4-1-1L66.3,80.4z"/>
		<path class="st6" d="M86.7,81.3h3.8c2.1,0,3.8,1.7,3.8,3.8c0,2.1-1.7,3.8-3.8,3.8c0,0,0,0,0,0h-3.8c-2.1,0-3.8-1.7-3.8-3.8
			C82.9,83,84.6,81.3,86.7,81.3z"/>
		<path class="st8" d="M86.7,81.3h3.8c2.1,0,3.8,1.7,3.8,3.8c0,2.1-1.7,3.8-3.8,3.8c0,0,0,0,0,0h-3.8c-2.1,0-3.8-1.7-3.8-3.8
			C82.9,83,84.6,81.3,86.7,81.3z"/>
		<path class="st9" d="M29.4,115.6h109.2l0,0v7.3c0,2-1.6,3.6-3.6,3.6l0,0H33c-2,0-3.5-1.6-3.5-3.6l0,0L29.4,115.6L29.4,115.6z"/>
		<line class="st10" x1="57.8" y1="50.6" x2="57.8" y2="111"/>
		<line class="st10" x1="109.8" y1="50.6" x2="109.8" y2="111"/>
		<path class="st11" d="M39.6,78.7h12.8l3,3l-3,3H39.6l-3-3L39.6,78.7z"/>
		<path class="st12" d="M44.7,79.3h2.7c1.3,0,2.4,1.1,2.4,2.4s-1.1,2.4-2.4,2.4c0,0,0,0,0,0h-2.7c-1.3,0-2.4-1.1-2.4-2.4
			S43.4,79.3,44.7,79.3C44.7,79.3,44.7,79.3,44.7,79.3z"/>
		<path class="st13" d="M39.2,87.4h13.8c1.4,0.1,2.5,1.3,2.4,2.7c-0.1,1.3-1.1,2.3-2.4,2.4H39.2c-1.4-0.1-2.5-1.3-2.4-2.7
			C36.8,88.5,37.8,87.5,39.2,87.4z"/>
		<path class="st6" d="M40.4,87.9h2.4c1.1-0.1,2.1,0.8,2.2,1.9c0.1,1.1-0.8,2.1-1.9,2.2c-0.1,0-0.2,0-0.3,0h-2.4
			c-1.1-0.1-2-1.1-1.9-2.2C38.6,88.8,39.4,88,40.4,87.9z"/>
		<path class="st14" d="M46.4,87.9h5.9c0.3,0,0.5,0.2,0.5,0.5v3.1c0,0.3-0.2,0.5-0.5,0.5h-5.9c-0.3,0-0.5-0.2-0.5-0.5v-3.1
			C45.9,88.2,46.1,87.9,46.4,87.9z"/>
		<path class="st15" d="M36.6,95.7c0-0.2,0.2-0.5,0.4-0.5c0,0,0,0,0,0H38c0.2,0,0.3,0.1,0.5,0.2l0.5,0.5c0.1,0.1,0.3,0.2,0.5,0.2
			h1.4c0.2,0,0.4-0.1,0.5-0.2l0.5-0.5c0.1-0.1,0.3-0.2,0.5-0.2h12.5c0.3,0,0.5,0.2,0.5,0.4c0,0,0,0,0,0v4.6c0,0.3-0.2,0.5-0.5,0.5
			c0,0,0,0,0,0H44.1c-0.2,0-0.3,0.1-0.4,0.2l-0.5,0.5c-0.1,0.1-0.3,0.2-0.5,0.2h-1.4c-0.2,0-0.4-0.1-0.5-0.2l-0.5-0.5
			c-0.1-0.1-0.3-0.2-0.5-0.2H39c-0.3,0-0.5,0.2-0.5,0.5v1.8c0,0.3,0.2,0.5,0.5,0.5h0.9c0.2,0,0.4,0.1,0.5,0.2l0.5,0.5
			c0.1,0.1,0.3,0.2,0.5,0.2h1.4c0.2,0,0.4-0.1,0.5-0.2l0.5-0.5c0.1-0.1,0.3-0.2,0.5-0.2h10.7c0.3,0,0.5,0.2,0.5,0.5v2.8
			c0,0.3-0.2,0.5-0.5,0.5c0,0,0,0,0,0H37.1c-0.3,0-0.5-0.2-0.5-0.5c0,0,0,0,0,0L36.6,95.7z"/>
		<path class="st6" d="M98.8,91.9L98.8,91.9v-0.1c0,0,0-0.1,0-0.1l-0.1-0.1c-0.2-0.5-0.5-0.9-0.8-1.4l0.7-0.4l0,0l-2.4-4.3l0,0
			L96,85.4l0,0h-0.1l-0.1,0.1c0,0,0,0.1-0.1,0.1c-0.1,0-0.3,0-0.4-0.1c-0.5-0.6-0.6-0.9,0-1.2l0,0L94.1,85l0.8,1.2l-0.6,0.4
			l-0.6-1.2l-1.7,1l0.4-0.2l0.7,1.2l-0.6,0.3l-0.7-1.3l-1.7,1l0.3-0.2l0.7,1.2l-0.6,0.3l-0.6-1.2l-1.3,0.8l2.1,3.7l-0.5,0.4L89.3,91
			L88,91.8v0.1l0,0l1.3,2.2l1.2,0.2v0.2l0.6-0.2l0.3,0.5l0.6-0.3l0.7,1.1h0.1H93l0.5-0.3l0.7,1.1l4.9-2.9l-0.7-1.1l0.3-0.2l0.1-0.1
			C98.8,92.1,98.8,92.1,98.8,91.9L98.8,91.9L98.8,91.9"/>
		<path d="M93.9,97.4l-1-1.8l0.5-0.3l0.7,1.1l4.9-2.9l-0.7-1.1L99,92l1.1,1.8L93.9,97.4z"/>
		<path d="M87.5,92.1l0.6-0.3l1.2,2.2l1.2,0.2v0.2l0.6-0.2l0.3,0.5l0.6-0.3l0.7,1.2L92.3,96l-0.4-0.5l-0.6,0.2l-0.4-0.5l-0.6,0.3
			l-0.4-0.5l-0.6,0.2L87.5,92.1z"/>
		<path d="M89.3,91l-1.2,0.7l-0.4-0.6l1.2-0.7l-1.1-1.8l0.6-0.4l2.1,3.7l-0.5,0.4L89.3,91z"/>
		<path d="M98.6,89.8l-2.5-4.3l0.5-0.3l2.5,4.2L98.6,89.8L98.6,89.8z"/>
		<path d="M98.6,89.8l1,1.8c-0.3,0.3-0.5,0.4-0.8,0s-0.5-0.9-0.8-1.4L98.6,89.8L98.6,89.8z"/>
		<path d="M95.3,84.3c0.2,0.3,0.4,0.6,0.5,0.9c0,0.2,0,0.3-0.2,0.5c-0.1,0-0.3,0-0.4-0.1C94.7,84.9,94.7,84.6,95.3,84.3z"/>
		<path d="M89.8,87.4l0.6-0.3l0.7,1.2l-0.6,0.3L89.8,87.4L89.8,87.4z"/>
		<path d="M91.6,86.3l0.6-0.3l0.7,1.2l-0.6,0.3L91.6,86.3L91.6,86.3z"/>
		<path d="M93.5,85.2l0.6-0.3l0,0l0.8,1.2l-0.6,0.4L93.5,85.2L93.5,85.2z"/>
		<path d="M91.6,86.3L90.4,87l-0.3-0.5l1.1-0.7L91.6,86.3L91.6,86.3z"/>
		<path d="M93.5,85.2l-1.2,0.7L92,85.4l1.1-0.6L93.5,85.2L93.5,85.2z"/>
		<path d="M89.8,87.4l-1.2,0.7l-0.4-0.5l1.2-0.7L89.8,87.4L89.8,87.4z"/>
		<path d="M94,84.9l-0.2-0.6l0.5-0.3l0.3,0.6L94,84.9L94,84.9z"/>
		<line class="st16" x1="54.3" y1="73.7" x2="62.2" y2="78.7"/>
		<polygon class="st17" points="60.4,80.3 65.1,80.5 62.9,76.3 		"/>
		<path class="st18" d="M130.8,71.7c-0.2-0.7-0.5-1.4-1-1.9c-0.1-0.4-1.3-1.3-1.3-1.3l0,0c0-0.1-0.1-0.1-0.2-0.2
			c-1.1-1-1.9-2.3-2.3-3.7c-0.2-0.6-0.3-1.2-0.5-1.8c-0.4-1.4-1-2.7-1.8-3.9c-0.5,0.6-0.9,1.2-1.3,1.8c-0.5,0.7-1.4,1.2-2.3,1.3
			c-0.2,0-0.3,0-0.4-0.3c-0.1-0.6-0.2-1.3-0.2-1.9c0-0.1,0-0.3,0.1-0.4c0.6-0.7,0.5-1-0.2-1.6h-0.6c-0.5,0.1-0.8,0.6-0.7,1
			c0,0.3,0.2,0.5,0.4,0.6c0.2,0.1,0.3,0.2,0.3,0.4c0.1,0.6,0.2,1.1,0.2,1.7c0,0.3-0.1,0.4-0.4,0.3c-0.6,0-1.3-0.3-1.8-0.7
			c-0.3-0.3-0.7-0.6-1-0.9c-0.7-0.7-0.9-0.6-1.2,0.2c-0.1,0.2-0.1,0.3-0.2,0.5c-0.4,1.2-0.7,2.5-0.8,3.8c-0.2,1.6-0.2,3.1,0,4.7
			c0,0.1,0.1,0.3,0.1,0.4c0.2,1.4,0.5,2.7,0.9,4c0.6,1.9,1.9,3.4,3.6,4.3c2.9,1.5,6.4,1.5,9.3-0.1C130.6,77,131.4,74.6,130.8,71.7z"
			/>
		<path class="st19" d="M122.6,63.5c1.2,0,2.2,0.9,2.2,2.1c0,0,0,0,0,0c0,1.2-0.9,2.2-2.1,2.2c0,0-0.1,0-0.1,0
			c-1.2,0-2.1-0.9-2.2-2.1c0,0,0-0.1,0-0.1c0-1.1,0.9-2.1,2-2.1C122.6,63.5,122.6,63.5,122.6,63.5z"/>
		<path class="st19" d="M115,67c0-1.2,1-2.1,2.1-2.1c0,0,0,0,0,0c1.2,0,2.2,1,2.2,2.2s-1,2.2-2.2,2.2c0,0,0,0,0,0
			c-1.2,0-2.1-0.9-2.2-2C115,67.1,115,67.1,115,67z"/>
		<path class="st20" d="M119.5,58.9c0,0.2-0.2,0.4-0.4,0.4c0,0,0,0,0,0c-0.3,0-0.4-0.2-0.4-0.4c0-0.2,0.1-0.4,0.3-0.4
			c0,0,0.1,0,0.1,0C119.3,58.5,119.5,58.6,119.5,58.9z"/>
		<path class="st21" d="M123.8,65.2c0,0.3-0.2,0.5-0.4,0.5s-0.5-0.2-0.4-0.4c0-0.2,0.2-0.4,0.4-0.4c0,0,0,0,0.1,0
			C123.6,64.8,123.8,64.9,123.8,65.2C123.8,65.2,123.8,65.2,123.8,65.2z"/>
		<path class="st22" d="M117.2,66.6c0-0.3,0.1-0.4,0.4-0.4s0.4,0.2,0.4,0.4c0,0.2-0.1,0.4-0.3,0.5c0,0-0.1,0-0.1,0
			C117.3,67.1,117.1,66.9,117.2,66.6z"/>
		<line class="st10" x1="109.8" y1="84.2" x2="133.8" y2="84.2"/>
		<line class="st23" x1="113.2" y1="88.2" x2="131" y2="88.2"/>
		<line class="st23" x1="113.2" y1="90.3" x2="131" y2="90.3"/>
		<line class="st23" x1="113.2" y1="92.5" x2="131" y2="92.5"/>
		<line class="st23" x1="113.2" y1="94.6" x2="131" y2="94.6"/>
		<circle class="st24" cx="15.5" cy="112" r="6.3"/>
		<circle class="st24" cx="19.4" cy="102.9" r="4.5"/>
		<path class="st2" d="M20.8,128.3H10.2c-0.3,0-0.5-0.2-0.5-0.5l-1-9.7c0-0.3,0.2-0.6,0.5-0.6c0,0,0,0,0.1,0h12.5
			c0.3,0,0.5,0.2,0.5,0.5c0,0,0,0,0,0.1l-1,9.7C21.3,128.1,21,128.3,20.8,128.3z"/>
		<rect x="34.5" y="53.7" class="st25" width="99" height="2.5"/>
		<line class="st26" x1="11.1" y1="108.7" x2="9.6" y2="107.5"/>
		<line class="st26" x1="10.5" y1="111.3" x2="8" y2="111.3"/>
		<line class="st26" x1="20.1" y1="110.9" x2="22.8" y2="109.9"/>
		<line class="st26" x1="19.7" y1="115.3" x2="21.9" y2="116.3"/>
		<line class="st26" x1="11.4" y1="114.9" x2="9.1" y2="116.2"/>
		<line class="st26" x1="14.3" y1="106.1" x2="13.8" y2="104.6"/>
		<line class="st26" x1="17.8" y1="107.1" x2="19" y2="105.4"/>
		<line class="st26" x1="17.5" y1="99.2" x2="16.6" y2="97.7"/>
		<line class="st26" x1="19.6" y1="98.8" x2="19.7" y2="97.5"/>
		<line class="st26" x1="22.7" y1="100.5" x2="23.7" y2="99.7"/>
		<line class="st26" x1="22.1" y1="104.2" x2="24" y2="105.1"/>
		<line class="st26" x1="16.2" y1="101.5" x2="14.4" y2="101.1"/>
		<circle class="st27" cx="124.8" cy="120" r="1.4"/>
		<circle class="st27" cx="128.6" cy="120" r="1.4"/>
	</g>
</g>
</svg>
