<svg xmlns="http://www.w3.org/2000/svg" xmlns:xlink="http://www.w3.org/1999/xlink" version="1.1" viewBox="0 0 173.12887573242188 56"><g xmlns="http://www.w3.org/2000/svg" data-id="wfZhCDY{W~fkmfKh?G_|" class="blocklyDraggable blocklySelected" data-shapes="stack" data-category="未来板 Lite"><style xmlns="http://www.w3.org/1999/xhtml">
      .blocklyText {
      fill: #fff;
      font-family: "Helvetica Neue", Helvetica, sans-serif;
      font-size: 12pt;
      font-weight: 600;
      }
      .blocklyNonEditableText&gt;text, .blocklyEditableText&gt;text {
      fill: #575E75;
      }
      .blocklyDropdownText {
      fill: #fff !important;
      }
      </style><path class="blocklyPath blocklyBlockBackground" stroke="#0a7aea" fill="#0099FF" fill-opacity="1" d="m 0,4 A 4,4 0 0,1 4,0 H 12 c 2,0 3,1 4,2 l 4,4 c 1,1 2,2 4,2 h 12 c 2,0 3,-1 4,-2 l 4,-4 c 1,-1 2,-2 4,-2 H 169.12887573242188 a 4,4 0 0,1 4,4 v 40  a 4,4 0 0,1 -4,4 H 48   c -2,0 -3,1 -4,2 l -4,4 c -1,1 -2,2 -4,2 h -12 c -2,0 -3,-1 -4,-2 l -4,-4 c -1,-1 -2,-2 -4,-2 H 4 a 4,4 0 0,1 -4,-4 z"/><g data-id="eBe9-xrj*TX@eO;S,/S=" data-argument-type="colour" data-shapes="argument round" transform="translate(125.12887573242188,8)"><path class="blocklyPath blocklyBlockBackground" stroke="#FFFFFF" fill="#ff0000" fill-opacity="1" d="m 16,0 H 24 a 16 16 0 0 1 0 32 H 16 a 16 16 0 0 1 0 -32 z"/><g class="blocklyEditableText" transform="translate(8, 0) "><text class="blocklyText" x="12" y="18" dominant-baseline="middle" dy="0" text-anchor="middle"> </text></g></g><text class="blocklyText" y="2" text-anchor="middle" dominant-baseline="middle" dy="0" x="54.56443786621094" transform="translate(8, 24) ">彩灯 所有颜色</text><path class="blocklyPath" style="visibility: hidden" d="" fill="#0a7aea"/></g></svg>