<svg xmlns="http://www.w3.org/2000/svg" xmlns:xlink="http://www.w3.org/1999/xlink" version="1.1" viewBox="0 0 420.49029541015625 40"><g xmlns="http://www.w3.org/2000/svg" data-id="XUIWCbe0?a=*K9lqM=Tv" class="blocklyDraggable blocklySelected" data-shapes="reporter round" data-category="operators"><style xmlns="http://www.w3.org/1999/xhtml">
      .blocklyText {
      fill: #fff;
      font-family: "Helvetica Neue", Helvetica, sans-serif;
      font-size: 12pt;
      font-weight: 600;
      }
      .blocklyNonEditableText&gt;text, .blocklyEditableText&gt;text {
      fill: #575E75;
      }
      .blocklyDropdownText {
      fill: #fff !important;
      }
      </style><path class="blocklyPath blocklyBlockBackground" stroke="#389438" fill="#59C059" fill-opacity="1" d="m 20,0 H 400.4903049468994 a 20 20 0 0 1 0 40 H 20 a 20 20 0 0 1 0 -40 z"/><g data-id="}jz18$Q1+_I=S^x5Fi5T" data-argument-type="text number" data-shapes="argument round" transform="translate(140.47821044921875,4)"><path class="blocklyPath blocklyBlockBackground" stroke="#389438" fill="#FFFFFF" fill-opacity="1" d="m 16,0 H 24 a 16 16 0 0 1 0 32 H 16 a 16 16 0 0 1 0 -32 z"/><g class="blocklyEditableText" transform="translate(8, 0) " style="cursor: text;"><text class="blocklyText" x="12" y="18" dominant-baseline="middle" dy="0" text-anchor="middle">0</text></g></g><g data-id="Rj=$ID8XO8r{p18vScsd" data-argument-type="text number" data-shapes="argument round" transform="translate(209.33184814453125,4)"><path class="blocklyPath blocklyBlockBackground" stroke="#389438" fill="#FFFFFF" fill-opacity="1" d="m 16,0 H 46.64542007446289 a 16 16 0 0 1 0 32 H 16 a 16 16 0 0 1 0 -32 z"/><g class="blocklyEditableText" transform="translate(8, 0) " style="cursor: text;"><text class="blocklyText" x="23.322710037231445" y="18" dominant-baseline="middle" dy="0" text-anchor="middle">4096</text></g></g><g data-id="9#w?@S(M8t=!B=~Vrge|" data-argument-type="text number" data-shapes="argument round" transform="translate(305.30725479125977,4)"><path class="blocklyPath blocklyBlockBackground" stroke="#389438" fill="#FFFFFF" fill-opacity="1" d="m 16,0 H 24 a 16 16 0 0 1 0 32 H 16 a 16 16 0 0 1 0 -32 z"/><g class="blocklyEditableText" transform="translate(8, 0) " style="cursor: text;"><text class="blocklyText" x="12" y="18" dominant-baseline="middle" dy="0" text-anchor="middle">0</text></g></g><g data-id=".yK0#LsDBqk`AFp}Q`CM" data-argument-type="text number" data-shapes="argument round" transform="translate(374.1608924865724,4)"><path class="blocklyPath blocklyBlockBackground" stroke="#389438" fill="#FFFFFF" fill-opacity="1" d="m 16,0 H 26.32941246032715 a 16 16 0 0 1 0 32 H 16 a 16 16 0 0 1 0 -32 z"/><g class="blocklyEditableText" transform="translate(8, 0) " style="cursor: text;"><text class="blocklyText" x="13.164706230163574" y="18" dominant-baseline="middle" dy="0" text-anchor="middle">60</text></g></g><text class="blocklyText" y="2" text-anchor="middle" dominant-baseline="middle" dy="0" x="17.329986572265625" transform="translate(12, 20) ">映射</text><path class="blocklyPath" style="visibility: hidden" d="M 16,0 h 16 a 16 16 0 0 1 0 32 h -16 a 16 16 0 0 1 0 -32 z" fill="#389438" transform="translate(54.65997314453125,4)" data-argument-type="round"/><text class="blocklyText" y="2" text-anchor="middle" dominant-baseline="middle" dy="0" x="8.664993286132812" transform="translate(115.14822387695312, 20) ">从</text><path class="blocklyPath" style="visibility: hidden" d="" fill="#389438"/><text class="blocklyText" y="2" text-anchor="middle" dominant-baseline="middle" dy="0" x="6.42681884765625" transform="translate(188.47821044921875, 20) ">~</text><path class="blocklyPath" style="visibility: hidden" d="" fill="#389438"/><text class="blocklyText" y="2" text-anchor="middle" dominant-baseline="middle" dy="0" x="8.664993286132812" transform="translate(279.97726821899414, 20) ">至</text><path class="blocklyPath" style="visibility: hidden" d="" fill="#389438"/><text class="blocklyText" y="2" text-anchor="middle" dominant-baseline="middle" dy="0" x="6.42681884765625" transform="translate(353.30725479125977, 20) ">~</text><path class="blocklyPath" style="visibility: hidden" d="" fill="#389438"/><g data-id="@1QF14l1hj%P8RQO,o*b" data-argument-type="text number" data-shapes="argument round" transform="translate(54.65997314453125,4)"><path class="blocklyPath blocklyBlockBackground" stroke="#389438" fill="#FFFFFF" fill-opacity="1" d="m 16,0 H 36.488250732421875 a 16 16 0 0 1 0 32 H 16 a 16 16 0 0 1 0 -32 z"/><g class="blocklyEditableText" transform="translate(8, 0) " style="cursor: text;"><text class="blocklyText" x="18.244125366210938" y="18" dominant-baseline="middle" dy="0" text-anchor="middle">100</text></g></g></g></svg>